<svg xmlns="http://www.w3.org/2000/svg" width="256" height="256" viewBox="0 0 48 48" fill="none">
  <defs>
    <linearGradient id="folder" x1="0" y1="0" x2="1" y2="1">
      <stop offset="0%" stop-color="#6366f1"/>
      <stop offset="100%" stop-color="#a78bfa"/>
    </linearGradient>
    <linearGradient id="border" x1="0" y1="0" x2="1" y2="1">
      <stop offset="0%" stop-color="#4338ca"/>
      <stop offset="100%" stop-color="#7c3aed"/>
    </linearGradient>
    <linearGradient id="signal" x1="0" y1="0" x2="1" y2="1">
      <stop offset="0%" stop-color="#22d3ee"/>
      <stop offset="100%" stop-color="#67e8f9"/>
    </linearGradient>
  </defs>
  <path d="M4.5,11.5 L4.5,10.5 Q4.5,7.5 7.5,7.5 L14,7.5 Q17,7.5 17,10.5 L17,11.5 L36.5,11.5 Q39.5,11.5 39.5,14.5 L39.5,37.5 Q39.5,40.5 36.5,40.5 L7.5,40.5 Q4.5,40.5 4.5,37.5 Z"
    fill="url(#folder)"
    stroke="url(#border)" stroke-width="2.5" stroke-linecap="round" stroke-linejoin="round"/>
  <circle cx="23.75" cy="26" r="3" fill="url(#signal)"/>
  <path d="M23.75,19.00 A7,7 0 0 1 29.81,29.50" fill="none" stroke="url(#signal)" stroke-width="2.5" stroke-linecap="round"/>
  <path d="M23.75,12.00 A14,14 0 0 1 35.87,33.00" fill="none" stroke="url(#signal)" stroke-width="2.5" stroke-linecap="round"/>
  <path d="M23.75,5.00 A21,21 0 0 1 41.94,36.50" fill="none" stroke="url(#signal)" stroke-width="2.5" stroke-linecap="round"/>
</svg>
